<?xml version="1.0" encoding="UTF-8"?><svg id="Capa_1" xmlns="http://www.w3.org/2000/svg" width="32" height="32" xmlns:xlink="http://www.w3.org/1999/xlink" viewBox="0 0 1080 1080"><defs><style>.cls-1{fill:#0b294f;}.cls-2{fill:#fff;filter:url(#drop-shadow-1);}.cls-3{fill:url(#Degradado_sin_nombre_2);}.cls-4{fill:none;filter:url(#drop-shadow-2);stroke:#f07484;stroke-miterlimit:10;stroke-width:16.0499px;}.cls-5{fill:url(#Degradado_sin_nombre_2-2);}</style><filter id="drop-shadow-1" filterUnits="userSpaceOnUse"><feOffset dx="8.0249" dy="8.0249"/><feGaussianBlur result="blur" stdDeviation="24.0748"/><feFlood flood-color="#000" flood-opacity=".3"/><feComposite in2="blur" operator="in"/><feComposite in="SourceGraphic"/></filter><linearGradient id="Degradado_sin_nombre_2" x1="367.3999" y1="1071.6494" x2="912.3059" y2="549.2395" gradientTransform="matrix(1, 0, 0, 1, 0, 0)" gradientUnits="userSpaceOnUse"><stop offset=".5356" stop-color="#fff" stop-opacity="0"/><stop offset="1" stop-color="#000"/></linearGradient><linearGradient id="Degradado_sin_nombre_2-2" x1="59.4872" y1="703.5953" x2="607.1373" y2="178.5546" gradientTransform="translate(.2609 1140.8696) rotate(-90)" xlink:href="#Degradado_sin_nombre_2"/><filter id="drop-shadow-2" filterUnits="userSpaceOnUse"><feOffset dx="8.0249" dy="8.0249"/><feGaussianBlur result="blur-2" stdDeviation="16.0499"/><feFlood flood-color="#000" flood-opacity=".5"/><feComposite in2="blur-2" operator="in"/><feComposite in="SourceGraphic"/></filter></defs><rect class="cls-1" y="-.375" width="1080" height="1080"/><path class="cls-2" d="M994.1444,490.8719L711.0557,207.7832l-170.2346,170.2346,180.1038,180.1039-180.4489,180.4489-180.4489-180.4489,180.1039-180.1039-170.2346-170.2346L86.8076,490.8719c-37.1408,37.1408-37.1408,97.3586,0,134.4995l386.4186,386.4186c18.5705,18.5704,42.9101,27.8556,67.2498,27.8556s48.6793-9.2852,67.2498-27.8556l386.4186-386.4186c37.1408-37.1409,37.1408-97.3587,0-134.4995Z"/><path class="cls-3" d="M540.476,1079.7431l-170.3028-170.3028,350.5984-350.5984,85.1854,85.1854c47.009,47.009,47.009,123.2257,0,170.2348l-265.4811,265.4811Z"/><path class="cls-5" d="M710.646,908.7592l-170.3028,170.3028-265.4811-265.4811c-47.009-47.009-47.009-123.2257,0-170.2348l85.1854-85.1854,350.5984,350.5984Z"/><rect class="cls-4" x="430.8913" y="84.2045" width="218.712" height="218.712" transform="translate(21.3668 438.7051) rotate(-45)"/></svg>