<?xml version="1.0" encoding="UTF-8"?><svg id="Capa_1" xmlns="http://www.w3.org/2000/svg" width="300" height="50" xmlns:xlink="http://www.w3.org/1999/xlink" viewBox="0 0 978 233"><defs><style>.cls-1,.cls-2,.cls-3{fill:#fff;}.cls-4{filter:url(#drop-shadow-2);stroke-width:3.6971px;}.cls-4,.cls-5{fill:none;stroke:#f07484;stroke-miterlimit:10;}.cls-6{filter:url(#drop-shadow-4);}.cls-5{filter:url(#drop-shadow-7);stroke-width:5.34px;}.cls-7{filter:url(#drop-shadow-6);}.cls-2{filter:url(#drop-shadow-8);}.cls-3{filter:url(#drop-shadow-1);}.cls-8{fill:url(#Degradado_sin_nombre_2);}.cls-9{fill:#f07484;opacity:0;}.cls-10{fill:url(#Degradado_sin_nombre_2-2);}</style><filter id="drop-shadow-1" filterUnits="userSpaceOnUse"><feOffset dx="1.8485" dy="1.8485"/><feGaussianBlur result="blur" stdDeviation="5.5456"/><feFlood flood-color="#000" flood-opacity=".3"/><feComposite in2="blur" operator="in"/><feComposite in="SourceGraphic"/></filter><linearGradient id="Degradado_sin_nombre_2" x1="81.5686" y1="238.1356" x2="207.0875" y2="117.7987" gradientTransform="matrix(1, 0, 0, 1, 0, 0)" gradientUnits="userSpaceOnUse"><stop offset=".5356" stop-color="#fff" stop-opacity="0"/><stop offset="1" stop-color="#000"/></linearGradient><linearGradient id="Degradado_sin_nombre_2-2" x1="291.492" y1="-72.1897" x2="417.643" y2="-193.1327" gradientTransform="translate(231.2609 531.8696) rotate(-90)" xlink:href="#Degradado_sin_nombre_2"/><filter id="drop-shadow-2" filterUnits="userSpaceOnUse"><feOffset dx="1.8485" dy="1.8485"/><feGaussianBlur result="blur-2" stdDeviation="3.6971"/><feFlood flood-color="#000" flood-opacity=".5"/><feComposite in2="blur-2" operator="in"/><feComposite in="SourceGraphic"/></filter><filter id="drop-shadow-4" filterUnits="userSpaceOnUse"><feOffset dx="8.7584" dy="8.7584"/><feGaussianBlur result="blur-3" stdDeviation="15.7651"/><feFlood flood-color="#000" flood-opacity=".45"/><feComposite in2="blur-3" operator="in"/><feComposite in="SourceGraphic"/></filter><filter id="drop-shadow-6" filterUnits="userSpaceOnUse"><feOffset dx="6.7233" dy="6.7233"/><feGaussianBlur result="blur-4" stdDeviation="5.3787"/><feFlood flood-color="#000" flood-opacity=".3"/><feComposite in2="blur-4" operator="in"/><feComposite in="SourceGraphic"/></filter><filter id="drop-shadow-7" filterUnits="userSpaceOnUse"><feOffset dx="2.67" dy="2.67"/><feGaussianBlur result="blur-5" stdDeviation="5.34"/><feFlood flood-color="#000" flood-opacity=".5"/><feComposite in2="blur-5" operator="in"/><feComposite in="SourceGraphic"/></filter><filter id="drop-shadow-8" filterUnits="userSpaceOnUse"><feOffset dx="3" dy="3"/><feGaussianBlur result="blur-6" stdDeviation="5"/><feFlood flood-color="#000" flood-opacity=".3"/><feComposite in2="blur-6" operator="in"/><feComposite in="SourceGraphic"/></filter></defs><g><path class="cls-3" d="M225.939,104.3537L160.7296,39.1443l-39.2135,39.2135,41.4869,41.4869-41.5663,41.5663-41.5663-41.5663,41.4869-41.4869-39.2135-39.2135L16.9342,104.3537c-8.5554,8.5554-8.5554,22.4265,0,30.9819l89.0114,89.0114c4.2777,4.2777,9.8843,6.4165,15.491,6.4165s11.2133-2.1388,15.491-6.4165l89.0114-89.0114c8.5554-8.5554,8.5554-22.4265,0-30.9819Z"/><path class="cls-8" d="M121.4366,240l-39.2292-39.2292,80.7602-80.7602,19.6224,19.6224c10.8285,10.8285,10.8285,28.385,0,39.2135l-61.1535,61.1535Z"/><path class="cls-10" d="M160.6352,200.6139l-39.2292,39.2292-61.1535-61.1535c-10.8285-10.8285-10.8285-28.385,0-39.2135l19.6224-19.6224,80.7602,80.7602Z"/><rect class="cls-4" x="96.1938" y="10.678" width="50.3802" height="50.3802" transform="translate(10.19 96.3369) rotate(-45)"/></g><g><g class="cls-6"><path class="cls-1" d="M557.8975,121.4678l-55.2256-72.4932V121.4678h-24.7617V7.4331h23.1328l53.4336,70.2129V7.4331h24.7617V121.4678h-21.3408Z"/><path class="cls-1" d="M718.1963,87.3389c-3.042,7.1143-7.25,13.3584-12.626,18.7344s-11.7852,9.6113-19.2227,12.707c-7.4404,3.0947-15.5576,4.6426-24.3545,4.6426s-16.8887-1.5479-24.2734-4.6426c-7.3867-3.0957-13.7646-7.2754-19.1416-12.5439-5.375-5.2666-9.5576-11.457-12.543-18.5718-2.9883-7.1118-4.4805-14.7427-4.4805-22.8882v-.3257c0-8.1455,1.5195-15.7739,4.5615-22.8887,3.04-7.1118,7.249-13.3584,12.626-18.7339,5.375-5.376,11.7822-9.6118,19.2227-12.707,7.4375-3.0952,15.5576-4.6426,24.3545-4.6426s16.8857,1.5474,24.2725,4.6426c7.3848,3.0952,13.7656,7.2773,19.1416,12.5439,5.376,5.269,9.5557,11.4595,12.5439,18.5713,2.9854,7.1143,4.4805,14.7432,4.4805,22.8882v.3262c0,8.145-1.5225,15.7764-4.5615,22.8882Zm-21.667-22.8882c0-4.8872-.8428-9.5024-2.5254-13.8472-1.6846-4.3423-4.0723-8.1455-7.167-11.4033-3.0957-3.2583-6.7607-5.8369-10.9971-7.7383-4.2354-1.8989-8.8525-2.8506-13.8467-2.8506-5.1064,0-9.749,.9238-13.9287,2.769-4.1816,1.8481-7.7656,4.3984-10.752,7.6567-2.9883,3.2583-5.3223,7.0332-7.0049,11.3218-1.6846,4.292-2.5244,8.8784-2.5244,13.7656v.3262c0,4.8872,.8398,9.5044,2.5244,13.8467,1.6826,4.3452,4.0732,8.1455,7.168,11.4038,3.0957,3.2578,6.7324,5.8389,10.915,7.7378,4.1797,1.9014,8.8223,2.8511,13.9287,2.8511,4.9941,0,9.6113-.9214,13.8467-2.7695,4.2354-1.8452,7.8447-4.3984,10.833-7.6567,2.9863-3.2578,5.3203-7.0303,7.0049-11.3218,1.6826-4.2891,2.5254-8.8784,2.5254-13.7656v-.3257Z"/><path class="cls-1" d="M814.3086,121.4678l-24.4355-36.4912h-19.7119v36.4912h-25.0869V7.4331h52.1299c13.5742,0,24.1357,3.3145,31.6855,9.9375,7.5469,6.6255,11.3213,15.8579,11.3213,27.6938v.3262c0,9.2319-2.2549,16.7539-6.7607,22.5625-4.5078,5.811-10.4004,10.0747-17.6748,12.7881l27.8564,40.7266h-29.3232Zm.4893-75.1001c0-5.4292-1.7383-9.502-5.2129-12.2178-3.4775-2.7134-8.3086-4.0728-14.499-4.0728h-24.9248V62.8213h25.4141c6.1904,0,10.9395-1.4658,14.2539-4.3984,3.3115-2.9321,4.9688-6.8418,4.9688-11.729v-.3262Z"/><path class="cls-1" d="M963.5303,86.9316c-2.9326,6.9517-7.0869,12.979-12.4619,18.083-5.376,5.1055-11.7861,9.1221-19.2236,12.0547-7.4404,2.9326-15.6133,4.3984-24.5176,4.3984h-44.4727V7.4331h44.4727c8.9043,0,17.0771,1.4409,24.5176,4.3174,7.4375,2.8784,13.8477,6.8696,19.2236,11.9736,5.375,5.106,9.5293,11.1055,12.4619,18.001,2.9326,6.8979,4.3984,14.3638,4.3984,22.3994v.3262c0,8.0381-1.4658,15.5317-4.3984,22.481Zm-21.8291-22.481c0-4.9941-.8428-9.6118-2.5254-13.8472-1.6855-4.2358-4.0195-7.873-7.0049-10.9146-2.9883-3.0396-6.5977-5.4014-10.833-7.0864-4.2363-1.6826-8.9072-2.5254-14.0107-2.5254h-19.3857V98.8237h19.3857c5.1035,0,9.7744-.8145,14.0107-2.4434,4.2354-1.6294,7.8447-3.9634,10.833-7.0054,2.9854-3.0391,5.3193-6.623,7.0049-10.7515,1.6826-4.1265,2.5254-8.7412,2.5254-13.8472v-.3257Z"/></g><g class="cls-7"><path class="cls-1" d="M507.9141,215.5h-29.4316v-67.7715h27.9805c13.166,0,21.9766,6.4863,21.9766,16.6523v.1934c0,9.1973-6.002,13.8447-11.5215,16.0713,8.1328,2.1299,15.2969,6.7773,15.2969,16.1689v.1934c0,11.3281-9.6816,18.4922-24.3008,18.4922Zm15.3945-50.6357c0-7.4541-6.0996-12.4893-16.9434-12.4893h-22.8486v26.625h22.3643c10.166,0,17.4277-4.9375,17.4277-13.9414v-.1943Zm3.7754,31.9502c0-8.3262-7.2617-13.167-20.6211-13.167h-22.9463v27.2051h24.5908c11.6191,0,18.9766-5.3242,18.9766-13.8447v-.1934Z"/><path class="cls-1" d="M587.1074,215.5v-67.7715h5.0352v63.124h39.792v4.6475h-44.8271Z"/><path class="cls-9" d="M712.8721,216.6621c-20.5254,0-33.9834-16.3623-33.9834-34.8545v-.1934c0-18.4922,13.6514-35.0479,34.1768-35.0479s33.9824,16.3623,33.9824,34.8535q.0967,.0977,0,.1943c0,18.4922-13.6514,35.0479-34.1758,35.0479Zm28.9482-35.0479c0-16.75-12.1992-30.498-28.9482-30.498s-28.7549,13.5547-28.7549,30.3037v.1943c0,16.749,12.1992,30.4971,28.9482,30.4971s28.7549-13.5547,28.7549-30.3037v-.1934Z"/><path class="cls-1" d="M833.6006,216.6621c-19.3633,0-33.6924-15.3945-33.6924-34.8545v-.1934c0-19.1699,14.3291-35.0479,33.8857-35.0479,12.1025,0,19.3643,4.4531,26.335,10.8438l-3.582,3.6787c-5.9062-5.7119-12.6836-9.9727-22.8496-9.9727-16.2646,0-28.5605,13.2646-28.5605,30.3037v.1943c0,17.1367,12.4893,30.4971,28.6572,30.4971,9.7793,0,16.459-3.7754,23.333-10.5527l3.3887,3.292c-7.1641,7.0674-14.9092,11.8115-26.915,11.8115Z"/><path class="cls-1" d="M962.8496,215.5l-27.8838-34.2734-16.8457,17.04v17.2334h-5.0342v-67.7715h5.0342v44.5352l43.1807-44.5352h6.874l-29.626,29.916,30.8838,37.8555h-6.583Z"/></g><rect class="cls-5" x="676.7086" y="145.157" width="72.7682" height="72.7682" transform="translate(80.4911 557.4048) rotate(-45)"/></g><rect class="cls-2" x="353" y="21" width="4" height="191" transform="translate(710 233) rotate(180)"/></svg>